<svg xmlns="http://www.w3.org/2000/svg" width="952.1" height="952.1">
  <path d="M812.5 139.4A474.7 474.7 0 0 0 476 0a474.7 474.7 0 0 0-336.5 139.5A474.7 474.7 0 0 0 0 476.1a473.8 473.8 0 0 0 139.4 336.6A474.7 474.7 0 0 0 476 952.1a473.8 473.8 0 0 0 336.7-139.4A474.7 474.7 0 0 0 952 476.1a473.8 473.8 0 0 0-139.6-336.7zm-600-31.9c4.3-3.3 8.5-6.8 13-9.9A398.2 398.2 0 0 1 300 57.4 457 457 0 0 1 595.8 38c-15.3 6.2-34 18-65.4 44.8a393.4 393.4 0 0 0-79-.4c-34.6 3.3-69.4 11-103.4 23a434.6 434.6 0 0 0-71.4 32.5c-25-9-57.5-19.6-73.5-24.8 2.6.8 7.8-4.3 9.5-5.6zm433.6 119l-81.4 222.2-195.3 37.5-161.3-166.7c10.9-75.6 62.7-142.6 62.7-142.6.2-.2 34-24.6 88.2-43.5a402.6 402.6 0 0 1 96-21.2c26.2-2.4 52.3-2 78 1.1l113.1 113.2zM39.4 460.2c-5 32.3-6 65.8-3.4 99.5-4-7.8-7-14.4-9.3-19.7a452.5 452.5 0 0 1 36.1-252.1c-3 30-1.5 61.1.6 84.7a404 404 0 0 0-24 87.6zm39.5 173.1c-4.6-16.9-10-41.5-12.7-71-3-33.3-2-66.4 3-98.1 3.8-24.3 9.9-47.9 18.3-70.6 32.8-27.8 76.4-44.1 100.5-51.6l158.5 163.6-16.6 179.3-154.9 51.7c-39.3-29-71.6-67.4-96-103.3zm470.4 259.6c-34.5 22.6-121.7 28-157 29.3a450.6 450.6 0 0 1-200.5-92.4c.5-.9-4.2-48.6-4-66l156.4-52.2 180.5 78.1 25 102.9-.4.3zm300-158.3a410 410 0 0 1-97.9 102.3c-36.2 25.6-84.8 34.4-128 41.5-3.3.5-44.6 7.3-45 5.9l-24.8-103 127-132.3 168.3-15.5c2.7 26.8 6 65.9 8 89.8l-7.6 11.3zm2.5-134.6a49 49 0 0 0-1.8 3.3l-167.5 15.4L592 460.9l81.6-222.7 115.2 7.3a405.4 405.4 0 0 1 64.7 67.9c23 30.9 40.9 64.8 53 100.7-12.8 111.2-42.3 166.6-54.9 185.9zm60.1-250.2a395.8 395.8 0 0 0-34.5-55 429.9 429.9 0 0 0-73.2-75.9c-5.2-25.3-19.2-65.1-56.8-106.9l2.2 1.6 6.8 5.2a456.4 456.4 0 0 1 155.7 230l-.1 1z"/>
</svg>
