<svg xmlns="http://www.w3.org/2000/svg" width="427.6" height="427.6">
  <g fill="#fff">
    <path d="M242.1 0C273 0 298 32 298 71.5s-25 71.6-55.8 71.6c-30.8 0-55.8-32-55.8-71.6 0-39.5 25-71.5 55.8-71.5zM84 276c75 0 64.5-26.7 104.5-23.2 8.6.8 15.3 1 20.5.8 11.3-.3 23.2-8.8 29.5-10.8 3.3-1 7.3-1.9 11.7-1.9 12.6 0 28.7 6.3 37.1 6.3 2.5 0 4.2-.5 5.5-1.1 2.7-1.5-1.6-6.7-7.2-9.4s-17.2-7-26-9.5c-8.7-2.5-23-4.7-31.9-4.9-8.9-.2-18 .8-20.3 2.1-2.3 1.4-9.4 1.7-15.8.7l-11.6-1.7-37.8-5-22.5-7.6s-49.8-15.5-83.4-7c-22.5 10.3-26.3 15-28 25.9C5.8 244.4 8.8 276 84 276zM339.4 304l23.9 26.7 42.7-.2 13.9-2.1s-22.6-59-25.8-95.7c-3.1-36.9-38.4-56.5-38.4-56.5-7.3-6.7-23.6-14.6-38.9-21.5v163l22.6 4.6V304zM339.4 427.6v-24.4l-22.6-17.7v42.1h22.6z"/>
    <path d="M141.9 210l25.5 3.4v-61.5c-33 10.7-86.3 28.6-109.5 40.7 30.2 0 60.8 9.4 62 9.8l22 7.6zM134 427.6h33.4V261.3a65 65 0 0 0-12.3 5.6 116 116 0 0 1-19.6 9l-1.6 151.7zM205.3 216.8c3.8-1.5 10.4-2 15.4-2.3V171l-15.4-17v62.8zM205.3 261.5v166.1h15.4V259.2a40.2 40.2 0 0 1-11.5 2.3h-3.9zM258.6 218.5l4.7 1.2a241 241 0 0 1 15.6 5.2v-79.7l-20.3 27.3v46zM258.6 350.9v76.7h20.3V355l-5.8-4.8c-3.8 1-9.3 1.8-14.5.7zM279 253.7l-7-1.5-3.6-.8 1.7 12.4 8.8 24.6v-34.7z"/>
    <path d="M260.4 254.8c-.5-3.5-1.6-5.7-2.8-7-3-3-9 2.3-9.3 6.6 0 2 0 4.6.7 7.6 2 10.5 9.6 36.3 9.6 41 0 4.8-7 18.5-6 34.8 1 16.3 22.1 7.8 22.1 7.8s96.3 78.4 103.6 80c7.4 1.6 33.2-21.6 34.2-34.2 1-12.6-6.6-56.8-6.6-56.8l-1.4.2h-34.7v5.6l-83.2-16.5-14-25.6-10.2-28.4-2-15z"/>
  </g>
</svg>
