<?xml version="1.0" standalone="no"?>
<!DOCTYPE svg PUBLIC "-//W3C//DTD SVG 20010904//EN"
 "http://www.w3.org/TR/2001/REC-SVG-20010904/DTD/svg10.dtd">
<svg version="1.0" xmlns="http://www.w3.org/2000/svg"
 width="700.000000pt" height="700.000000pt" viewBox="0 0 700.000000 700.000000"
 preserveAspectRatio="xMidYMid meet">
<metadata>
Created by potrace 1.11, written by Peter Selinger 2001-2013
</metadata>
<g transform="translate(0.000000,700.000000) scale(0.100000,-0.100000)"
fill="#000000" stroke="none">
<path d="M3278 6995 c-1 -1 -42 -5 -89 -9 -47 -4 -95 -8 -105 -10 -10 -2 -46
-7 -79 -11 -32 -4 -68 -9 -80 -11 -11 -2 -45 -8 -75 -14 -387 -71 -825 -240
-1175 -453 -32 -20 -229 -151 -245 -164 -8 -6 -51 -40 -95 -74 -336 -261 -656
-632 -872 -1010 -155 -270 -294 -616 -359 -889 -50 -214 -72 -350 -91 -550
-15 -166 -8 -566 13 -717 11 -85 13 -101 19 -148 4 -27 10 -66 15 -85 5 -19
12 -48 14 -65 27 -150 108 -418 185 -609 50 -124 164 -352 233 -464 35 -57 68
-111 73 -120 25 -44 134 -193 208 -285 147 -182 319 -356 504 -509 85 -71 327
-248 338 -248 3 0 35 -19 72 -43 235 -150 623 -315 920 -392 111 -28 115 -29
223 -50 105 -20 129 -24 180 -31 25 -3 56 -7 70 -10 163 -26 653 -25 850 2 89
12 104 15 124 19 12 2 38 7 58 10 144 20 433 99 623 170 726 272 1351 792
1758 1461 63 103 159 287 201 384 16 36 36 83 46 105 54 123 147 418 176 560
61 295 79 465 79 755 0 292 -13 439 -61 685 -218 1119 -985 2075 -2030 2531
-145 63 -162 69 -329 124 -178 58 -357 102 -510 124 -23 4 -51 8 -62 10 -12 3
-48 8 -80 11 -32 4 -76 9 -98 12 -45 5 -541 13 -547 8z m517 -168 c17 -3 57
-9 90 -12 33 -3 71 -8 85 -10 127 -20 230 -39 308 -58 73 -18 90 -25 80 -35
-7 -7 -16 -12 -21 -12 -26 0 -331 -207 -367 -250 -3 -3 -19 -17 -37 -31 -30
-25 -36 -26 -115 -21 -154 12 -561 3 -587 -12 -4 -2 -29 -6 -56 -10 -173 -20
-538 -112 -660 -167 -11 -4 -56 -22 -100 -39 -44 -17 -148 -65 -232 -106
l-152 -75 -261 87 c-224 75 -293 104 -250 104 6 0 20 9 31 19 104 97 375 257
603 356 256 111 610 216 808 239 26 3 58 8 70 10 34 7 103 15 193 22 44 4 81
8 83 9 5 5 458 -3 487 -8z m45 -651 l75 -7 418 -418 418 -417 -66 -179 c-36
-99 -68 -187 -72 -195 -3 -8 -7 -19 -9 -25 -1 -5 -20 -57 -42 -115 -21 -58
-76 -206 -121 -330 -45 -124 -84 -232 -88 -240 -3 -8 -7 -19 -9 -25 -1 -5 -43
-120 -93 -255 -50 -135 -91 -250 -91 -256 0 -10 -89 -30 -300 -68 -14 -3 -50
-10 -80 -16 -30 -6 -64 -13 -75 -14 -11 -2 -60 -11 -110 -21 -49 -9 -101 -19
-115 -22 -14 -2 -117 -22 -230 -44 -113 -22 -250 -48 -305 -59 -55 -10 -113
-22 -130 -25 -106 -21 -86 -32 -239 127 -77 78 -257 264 -400 412 -144 148
-287 296 -320 330 -32 34 -119 123 -192 198 -151 155 -141 130 -108 276 79
344 342 853 489 947 165 106 399 216 613 289 131 45 379 110 457 120 22 3 51
8 65 10 44 8 113 16 185 22 39 3 71 7 72 8 5 5 337 -2 403 -8z m1767 -88 c480
-393 847 -917 1046 -1493 51 -150 53 -170 6 -85 -79 143 -183 295 -312 453
-70 85 -279 296 -385 387 -32 28 -54 56 -57 73 -12 64 -77 243 -120 328 -68
136 -173 294 -249 377 -47 50 -25 38 71 -40z m-437 -853 c36 -2 110 -7 165
-10 55 -3 120 -8 145 -10 25 -3 99 -7 165 -10 157 -8 148 -5 203 -51 49 -41
252 -242 287 -285 11 -13 44 -52 72 -86 118 -142 247 -346 332 -524 92 -195
123 -277 122 -326 0 -28 -44 -322 -55 -378 -86 -409 -190 -713 -311 -910 -17
-27 -34 -58 -38 -67 -5 -13 -18 -18 -49 -19 -24 -1 -54 -2 -68 -4 -14 -1 -59
-5 -100 -9 -41 -4 -95 -9 -120 -11 -25 -3 -72 -8 -105 -11 -33 -3 -78 -7 -100
-9 -22 -2 -76 -6 -120 -10 -44 -3 -96 -8 -115 -10 -44 -5 -138 -14 -210 -20
-89 -8 -162 -15 -210 -20 l-45 -5 -40 72 c-49 90 -69 125 -237 418 -74 129
-146 255 -160 280 -14 25 -70 123 -125 218 l-99 174 88 241 c49 133 105 285
124 337 19 52 37 100 38 105 2 6 6 17 9 25 4 8 47 128 98 265 50 138 125 343
167 457 l76 207 76 -4 c41 -3 104 -7 140 -10z m-4715 -612 c0 -137 2 -275 5
-308 3 -48 -2 -74 -23 -130 -127 -336 -185 -686 -181 -1097 1 -98 0 -178 -2
-178 -12 0 -62 133 -68 180 -34 284 -26 697 18 940 3 14 7 42 10 64 18 117 90
390 137 516 33 89 100 260 102 260 1 0 2 -111 2 -247z m1171 -389 c131 -136
259 -268 284 -294 121 -126 560 -578 596 -614 23 -22 40 -49 39 -58 -2 -9 -6
-52 -9 -95 -4 -43 -9 -98 -11 -123 -13 -133 -22 -226 -30 -325 -4 -38 -8 -86
-11 -105 -4 -34 -12 -127 -19 -222 -2 -26 -6 -71 -9 -100 -4 -29 -8 -78 -11
-108 -11 -135 -16 -186 -20 -206 -4 -17 -87 -48 -564 -207 -307 -103 -564
-187 -571 -187 -11 0 -98 66 -170 130 -160 140 -375 384 -502 571 -36 52 -76
177 -92 294 -4 23 -8 50 -10 62 -3 12 -8 43 -12 70 -3 26 -8 56 -10 66 -9 49
-18 228 -18 357 0 193 7 277 39 495 13 87 54 248 96 382 l30 92 82 59 c100 72
193 126 312 182 102 48 312 129 336 130 9 0 123 -111 255 -246z m4615 -1901
c0 -4 2 -19 4 -33 1 -14 6 -61 9 -105 4 -44 8 -93 11 -110 2 -16 6 -66 9 -110
4 -44 8 -98 11 -120 19 -155 18 -168 -17 -220 -18 -28 -38 -57 -45 -65 -7 -8
-39 -51 -72 -95 -183 -248 -431 -493 -644 -639 -159 -108 -403 -197 -691 -252
-11 -2 -43 -8 -71 -13 -27 -6 -67 -13 -89 -16 -21 -3 -41 -7 -45 -9 -3 -2 -28
-6 -56 -10 -27 -3 -95 -12 -150 -21 -169 -25 -145 -49 -206 202 -29 120 -54
223 -55 228 -1 6 -18 77 -38 159 -27 111 -34 152 -25 162 12 15 76 82 238 250
58 60 199 207 312 325 113 118 244 253 290 301 l84 87 75 6 c41 3 86 8 100 10
14 2 61 7 105 10 43 3 93 8 110 10 16 2 66 7 110 10 44 3 98 8 120 10 53 7
112 12 215 20 47 4 92 8 100 10 8 3 56 7 105 11 50 3 91 7 92 8 7 7 103 6 104
-1z m-3175 -796 c297 -129 596 -258 666 -288 112 -48 127 -57 132 -82 3 -15 7
-33 9 -40 5 -17 12 -43 47 -192 18 -71 51 -212 76 -313 24 -100 44 -184 44
-186 0 -15 -238 -104 -320 -120 -14 -2 -56 -11 -95 -20 -38 -8 -97 -18 -130
-21 -33 -4 -62 -9 -65 -10 -18 -11 -424 -42 -515 -40 -74 2 -98 5 -143 19 -9
3 -29 7 -43 10 -72 12 -372 106 -454 141 -16 7 -55 23 -85 36 -101 43 -311
150 -404 206 -90 55 -309 205 -334 230 -7 7 -19 16 -27 20 -9 5 -16 38 -20 98
-4 50 -9 108 -11 130 -2 22 -6 92 -9 155 l-6 115 573 192 c315 105 574 192
574 192 1 1 244 -104 540 -232z"/>
</g>
</svg>
